HIERARCHY
ROOT Hips
{
	OFFSET	0.00	0.00	0.00
	CHANNELS 6 Xposition Yposition Zposition Zrotation Xrotation Yrotation
	JOINT LeftUpLeg
	{
		OFFSET	 0.126116	-0.014019	-0.065224
		CHANNELS 3 Zrotation Xrotation Yrotation
		JOINT LeftLeg
		{
			OFFSET	 0.000000	 0.000000	 0.569914
			CHANNELS 3 Zrotation Xrotation Yrotation
			JOINT LeftFoot
			{
				OFFSET	 0.000000	 0.000000	 0.544423
				CHANNELS 3 Zrotation Xrotation Yrotation
				JOINT LeftToeBase
				{
					OFFSET	 0.000000	 0.000000	 0.207117
					CHANNELS 3 Zrotation Xrotation Yrotation
					End Site
					{
						OFFSET	 0.000000	 0.000000	 0.207117
					}
				}
			}
		}
	}
	JOINT RightUpLeg
	{
		OFFSET	-0.124023	-0.008373	-0.065224
		CHANNELS 3 Zrotation Xrotation Yrotation
		JOINT RightLeg
		{
			OFFSET	 0.000000	 0.000000	 0.570047
			CHANNELS 3 Zrotation Xrotation Yrotation
			JOINT RightFoot
			{
				OFFSET	 0.000000	 0.000000	 0.544354
				CHANNELS 3 Zrotation Xrotation Yrotation
				JOINT RightToeBase
				{
					OFFSET	 0.000000	 0.000000	 0.207540
					CHANNELS 3 Zrotation Xrotation Yrotation
					End Site
					{
						OFFSET	 0.000000	 0.000000	 0.207540
					}
				}
			}
		}
	}
	JOINT Spine
	{
		OFFSET	 0.000184	-0.007763	 0.117403
		CHANNELS 3 Zrotation Xrotation Yrotation
		JOINT Spine1
		{
			OFFSET	 0.000000	 0.000000	 0.137269
			CHANNELS 3 Zrotation Xrotation Yrotation
			JOINT Spine2
			{
				OFFSET	 0.000000	 0.000000	 0.156879
				CHANNELS 3 Zrotation Xrotation Yrotation
				JOINT LeftShoulder
				{
					OFFSET	 0.080501	-0.002496	 0.160144
					CHANNELS 3 Zrotation Xrotation Yrotation
					JOINT LeftArm
					{
						OFFSET	 0.000000	 0.000000	 0.164363
						CHANNELS 3 Zrotation Xrotation Yrotation
						JOINT LeftForeArm
						{
							OFFSET	 0.000000	 0.000000	 0.364576
							CHANNELS 3 Zrotation Xrotation Yrotation
							JOINT LeftHand
							{
								OFFSET	 0.000000	 0.000000	 0.360812
								CHANNELS 3 Zrotation Xrotation Yrotation
								JOINT LeftHandIndex1
								{
									OFFSET	 0.000000	 0.000000	 0.086006
									CHANNELS 3 Zrotation Xrotation Yrotation
									JOINT LeftHandIndex2
									{
										OFFSET	 0.000000	 0.000000	 0.047236
										CHANNELS 3 Zrotation Xrotation Yrotation
										JOINT LeftHandIndex3
										{
											OFFSET	-0.004284	-0.000551	 0.038166
											CHANNELS 3 Zrotation Xrotation Yrotation
											End Site
											{
												OFFSET	-0.004284	-0.000551	 0.038166
											}
										}
									}
								}
							}
						}
					}
				}
				JOINT Neck
				{
					OFFSET	 0.000000	 0.000000	 0.176489
					CHANNELS 3 Zrotation Xrotation Yrotation
					JOINT Head
					{
						OFFSET	 0.000000	-0.001747	 0.077940
						CHANNELS 3 Zrotation Xrotation Yrotation
						End Site
						{
							OFFSET	 0.000000	-0.001747	 0.077940
						}
					}
				}
				JOINT RightShoulder
				{
					OFFSET	-0.080363	 0.000306	 0.159706
					CHANNELS 3 Zrotation Xrotation Yrotation
					JOINT RightArm
					{
						OFFSET	 0.000000	 0.000000	 0.164196
						CHANNELS 3 Zrotation Xrotation Yrotation
						JOINT RightForeArm
						{
							OFFSET	 0.000000	 0.000000	 0.365611
							CHANNELS 3 Zrotation Xrotation Yrotation
							JOINT RightHand
							{
								OFFSET	 0.000000	 0.000000	 0.360648
								CHANNELS 3 Zrotation Xrotation Yrotation
								JOINT RightHandIndex1
								{
									OFFSET	 0.000000	 0.000000	 0.069977
									CHANNELS 3 Zrotation Xrotation Yrotation
									JOINT RightHandIndex2
									{
										OFFSET	 0.000000	 0.000000	 0.052305
										CHANNELS 3 Zrotation Xrotation Yrotation
										JOINT RightHandIndex3
										{
											OFFSET	 0.009002	-0.000782	 0.042196
											CHANNELS 3 Zrotation Xrotation Yrotation
											End Site
											{
												OFFSET	 0.009002	-0.000782	 0.042196
											}
										}
									}
								}
							}
						}
					}
				}
			}
		}
	}
}
MOTION
Frames:    5
Frame Time: 0.03333334
-0.032047	 0.297884	 0.999927	 3.427067	 32.956480	-8.540868	 63.770740	-80.540410	-121.843300	 7.128294	-73.009310	 7.219075	 54.848660	 78.327980	-62.038940	-2.385832	 28.452790	-0.000001	 84.613040	-82.245410	-93.886260	-19.468220	-76.724270	-13.954350	-7.044244	 79.631000	 27.329280	 2.384659	 28.388700	-0.000001	 8.427187	 14.923200	 0.412282	-1.584526	 20.444260	 0.556643	-6.071341	 0.051530	 4.501943	-99.143460	 68.199340	 156.853200	 5.287509	-6.998000	-48.535740	-27.397150	 2.713357	-7.363257	-26.850260	-17.330660	-18.937990	-2.027600	 6.559038	 9.033609	-5.188889	 0.308190	 3.541030	-5.234859	 0.342567	 0.430617	 0.320072	 17.406270	-5.920938	-5.088872	-26.501090	-3.191254	 97.440030	 64.631200	-159.281400	-5.346374	 3.640651	 49.641900	 8.780556	 11.779950	 35.077670	 11.185110	-16.401360	 14.620500	 1.803333	 3.979147	-15.098590	 4.898592	 3.004813	-9.310344	 5.224449	 0.395017	 2.014677
-0.030879	 0.297282	 1.007954	 3.370640	 32.281650	-8.295091	 56.836730	-79.667550	-128.841600	 6.428405	-71.887340	 6.508748	 53.661600	 78.178090	-60.612920	-2.385832	 28.452790	-0.000001	 72.728440	-82.349840	-105.463500	-18.597590	-75.652400	-13.046340	-6.643547	 79.478290	 26.881380	 2.384659	 28.388700	-0.000001	 9.751688	 14.795610	 0.260507	-1.383158	 20.607150	 0.207304	-6.450003	-0.464140	 4.453142	-98.983860	 68.263740	 157.246500	 5.525526	-5.819021	-48.872340	-27.217540	 2.707641	-7.358320	-27.216760	-17.461140	-19.232460	-2.027600	 6.559038	 9.033609	-5.188889	 0.308190	 3.541030	-5.234859	 0.342567	 0.430617	-0.005313	 15.413880	-5.123570	-5.686162	-24.502010	-3.625948	 97.333200	 64.526890	-159.661900	-6.017514	 3.677546	 49.294790	 8.912663	 12.138240	 35.760610	 11.326380	-16.478140	 15.299340	 1.803333	 3.979147	-15.098590	 4.898592	 3.004813	-9.310344	 5.224449	 0.395017	 2.014677
-0.029699	 0.296550	 1.016604	 3.358804	 31.570870	-8.062526	 50.563080	-78.639430	-135.118900	 5.927214	-70.678050	 5.989113	 51.970560	 77.981220	-58.769800	-2.385832	 28.452790	-0.000001	 60.141100	-82.120600	-117.671900	-17.793830	-74.485790	-12.200780	-6.250804	 79.269330	 26.404330	 2.384659	 28.388700	-0.000001	 11.064370	 14.659820	 0.132836	-1.152172	 20.784220	-0.163320	-6.831851	-1.022989	 4.371331	-98.707990	 68.545300	 157.678300	 5.859502	-4.384314	-49.392460	-26.983180	 2.699624	-7.351228	-27.624760	-17.658440	-19.664010	-2.027600	 6.559038	 9.033609	-5.188889	 0.308190	 3.541030	-5.234859	 0.342567	 0.430617	-0.295649	 13.005420	-4.534573	-6.144014	-22.099360	-3.807519	 97.192320	 64.296600	-160.244200	-6.786865	 3.519101	 49.027570	 8.962546	 12.504440	 36.564950	 11.242810	-16.382130	 15.984250	 1.803333	 3.979147	-15.098590	 4.898592	 3.004813	-9.310344	 5.224449	 0.395017	 2.014677
-0.028390	 0.295670	 1.025453	 3.338058	 30.862930	-7.827351	 45.286860	-77.474750	-140.401100	 5.479585	-69.423990	 5.522399	 50.299720	 77.773900	-56.935120	-2.385832	 28.452790	-0.000001	 48.607040	-81.520830	-128.833600	-17.066890	-73.263620	-11.429220	-5.877488	 79.040180	 25.954930	 2.384659	 28.388700	-0.000001	 12.310650	 14.498490	 0.018313	-0.922724	 20.863500	-0.488988	-7.177565	-1.524743	 4.268298	-98.442090	 68.820170	 158.098800	 6.246704	-2.924959	-49.862630	-26.790150	 2.686640	-7.337644	-27.972540	-17.838420	-20.068440	-2.027600	 6.559038	 9.033609	-5.188889	 0.308190	 3.541030	-5.234859	 0.342567	 0.430617	-0.551475	 10.664210	-3.980790	-6.527517	-19.769260	-3.928508	 97.052310	 64.072720	-160.808700	-7.576306	 3.388383	 48.642600	 8.959720	 12.898580	 37.496070	 11.174870	-16.272120	 16.642220	 1.803333	 3.979147	-15.098590	 4.898592	 3.004813	-9.310344	 5.224449	 0.395017	 2.014677
-0.026925	 0.294561	 1.034958	 3.255906	 30.037940	-7.504179	 40.450230	-76.080800	-145.326800	 5.072741	-68.092170	 5.095042	 48.718460	 77.583240	-55.180600	-2.385832	 28.452790	-0.000001	 37.656150	-80.529480	-139.415500	-16.462610	-71.909630	-10.770360	-5.405007	 78.829580	 25.386930	 2.384659	 28.388700	-0.000001	 13.551620	 14.312230	-0.089778	-0.718094	 20.978300	-0.778018	-7.500773	-2.191505	 4.095054	-97.968180	 69.484210	 158.589500	 6.821560	-1.042056	-50.466230	-26.428870	 2.670940	-7.321439	-28.489930	-18.086280	-20.825820	-2.027600	 6.559038	 9.033609	-5.188889	 0.308190	 3.541030	-5.234859	 0.342567	 0.430617	-0.774000	 7.586007	-3.321929	-6.919264	-16.751060	-4.086157	 96.865490	 64.174420	-161.209500	-8.436091	 3.864689	 48.125440	 8.604651	 13.153820	 38.639360	 11.021310	-16.101630	 17.114040	 1.803333	 3.979147	-15.098590	 4.898592	 3.004813	-9.310344	 5.224449	 0.395017	 2.014677
